<svg width="751" height="154" viewBox="0 0 751 154" fill="none" xmlns="http://www.w3.org/2000/svg">
<path d="M187.816 78.895C190.896 79.973 193.309 81.667 195.054 83.977C196.799 86.2357 197.672 88.982 197.672 92.216C197.672 96.9387 195.773 100.583 191.974 103.15C188.175 105.717 182.683 107 175.496 107H146.39V53.1H173.956C180.835 53.1 186.071 54.3833 189.664 56.95C193.257 59.4653 195.054 62.879 195.054 67.191C195.054 69.7577 194.412 72.0677 193.129 74.121C191.897 76.123 190.126 77.7143 187.816 78.895ZM161.482 64.111V74.506H171.954C177.087 74.506 179.654 72.7607 179.654 69.27C179.654 65.8307 177.087 64.111 171.954 64.111H161.482ZM174.264 95.989C179.603 95.989 182.272 94.1667 182.272 90.522C182.272 86.8773 179.603 85.055 174.264 85.055H161.482V95.989H174.264ZM234.906 92.678H226.59V107H211.344V53.1H235.984C240.86 53.1 245.095 53.9213 248.689 55.564C252.282 57.1553 255.054 59.4653 257.005 62.494C258.955 65.4713 259.931 68.9877 259.931 73.043C259.931 76.9443 259.007 80.358 257.159 83.284C255.362 86.1587 252.77 88.4173 249.382 90.06L261.009 107H244.685L234.906 92.678ZM244.531 73.043C244.531 70.5277 243.735 68.577 242.144 67.191C240.552 65.805 238.191 65.112 235.06 65.112H226.59V80.897H235.06C238.191 80.897 240.552 80.2297 242.144 78.895C243.735 77.509 244.531 75.5583 244.531 73.043ZM310.23 96.528H287.438L283.203 107H267.649L291.442 53.1H306.457L330.327 107H314.465L310.23 96.528ZM305.764 85.286L298.834 68.038L291.904 85.286H305.764ZM340.424 53.1H355.67V107H340.424V53.1ZM423.574 53.1V107H411.023L387.23 78.279V107H372.292V53.1H384.843L408.636 81.821V53.1H423.574ZM459.045 108.078C454.682 108.078 450.447 107.539 446.34 106.461C442.233 105.383 438.897 103.946 436.33 102.149L441.335 90.907C443.748 92.4983 446.545 93.7817 449.728 94.757C452.911 95.7323 456.042 96.22 459.122 96.22C464.974 96.22 467.9 94.757 467.9 91.831C467.9 90.291 467.053 89.1617 465.359 88.443C463.716 87.673 461.047 86.8773 457.351 86.056C453.296 85.1833 449.908 84.2593 447.187 83.284C444.466 82.2573 442.131 80.6403 440.18 78.433C438.229 76.2257 437.254 73.2483 437.254 69.501C437.254 66.2157 438.152 63.264 439.949 60.646C441.746 57.9767 444.415 55.872 447.957 54.332C451.55 52.792 455.939 52.022 461.124 52.022C464.666 52.022 468.157 52.4327 471.596 53.254C475.035 54.024 478.064 55.179 480.682 56.719L475.985 68.038C470.852 65.266 465.872 63.88 461.047 63.88C458.018 63.88 455.811 64.342 454.425 65.266C453.039 66.1387 452.346 67.2937 452.346 68.731C452.346 70.1683 453.167 71.2463 454.81 71.965C456.453 72.6837 459.096 73.428 462.741 74.198C466.848 75.0707 470.236 76.0203 472.905 77.047C475.626 78.0223 477.961 79.6137 479.912 81.821C481.914 83.977 482.915 86.9287 482.915 90.676C482.915 93.91 482.017 96.836 480.22 99.454C478.423 102.072 475.728 104.177 472.135 105.768C468.542 107.308 464.178 108.078 459.045 108.078ZM506.453 65.189H489.898V53.1H538.177V65.189H521.699V107H506.453V65.189ZM576.061 108.078C570.363 108.078 565.23 106.872 560.661 104.459C556.144 102.046 552.576 98.7097 549.958 94.449C547.392 90.1883 546.108 85.3887 546.108 80.05C546.108 74.7113 547.392 69.9117 549.958 65.651C552.576 61.3903 556.144 58.0537 560.661 55.641C565.23 53.2283 570.363 52.022 576.061 52.022C581.759 52.022 586.867 53.2283 591.384 55.641C595.953 58.0537 599.521 61.3903 602.087 65.651C604.705 69.9117 606.014 74.7113 606.014 80.05C606.014 85.3887 604.705 90.1883 602.087 94.449C599.521 98.7097 595.953 102.046 591.384 104.459C586.867 106.872 581.759 108.078 576.061 108.078ZM576.061 95.45C578.782 95.45 581.246 94.8083 583.453 93.525C585.661 92.2417 587.406 90.445 588.689 88.135C589.973 85.7737 590.614 83.0787 590.614 80.05C590.614 77.0213 589.973 74.352 588.689 72.042C587.406 69.6807 585.661 67.8583 583.453 66.575C581.246 65.2917 578.782 64.65 576.061 64.65C573.341 64.65 570.877 65.2917 568.669 66.575C566.462 67.8583 564.717 69.6807 563.433 72.042C562.15 74.352 561.508 77.0213 561.508 80.05C561.508 83.0787 562.15 85.7737 563.433 88.135C564.717 90.445 566.462 92.2417 568.669 93.525C570.877 94.8083 573.341 95.45 576.061 95.45ZM643.337 92.678H635.021V107H619.775V53.1H644.415C649.291 53.1 653.526 53.9213 657.12 55.564C660.713 57.1553 663.485 59.4653 665.436 62.494C667.386 65.4713 668.362 68.9877 668.362 73.043C668.362 76.9443 667.438 80.358 665.59 83.284C663.793 86.1587 661.201 88.4173 657.813 90.06L669.44 107H653.116L643.337 92.678ZM652.962 73.043C652.962 70.5277 652.166 68.577 650.575 67.191C648.983 65.805 646.622 65.112 643.491 65.112H635.021V80.897H643.491C646.622 80.897 648.983 80.2297 650.575 78.895C652.166 77.509 652.962 75.5583 652.962 73.043ZM731.212 107L731.058 78.433L717.198 101.687H710.422L696.639 79.203V107H682.548V53.1H695.099L714.041 84.208L732.521 53.1H745.072L745.226 107H731.212Z" fill="#0A55EE"/>
<path d="M167.02 132.47H171.325V142.235C170.065 143.238 168.595 144.008 166.915 144.545C165.235 145.082 163.508 145.35 161.735 145.35C159.238 145.35 156.987 144.813 154.98 143.74C152.973 142.643 151.398 141.138 150.255 139.225C149.112 137.312 148.54 135.153 148.54 132.75C148.54 130.347 149.112 128.188 150.255 126.275C151.398 124.362 152.973 122.868 154.98 121.795C157.01 120.698 159.285 120.15 161.805 120.15C163.858 120.15 165.725 120.488 167.405 121.165C169.085 121.842 170.497 122.833 171.64 124.14L168.77 126.94C166.903 125.073 164.652 124.14 162.015 124.14C160.288 124.14 158.748 124.502 157.395 125.225C156.065 125.948 155.015 126.963 154.245 128.27C153.498 129.577 153.125 131.07 153.125 132.75C153.125 134.383 153.498 135.853 154.245 137.16C155.015 138.467 156.065 139.493 157.395 140.24C158.748 140.987 160.277 141.36 161.98 141.36C163.893 141.36 165.573 140.94 167.02 140.1V132.47ZM196.156 119.03H200.531V145H196.156V119.03ZM233.923 145.245C232.033 145.245 230.33 144.837 228.813 144.02C227.297 143.203 226.107 142.072 225.243 140.625C224.403 139.155 223.983 137.498 223.983 135.655C223.983 133.812 224.403 132.167 225.243 130.72C226.107 129.273 227.297 128.142 228.813 127.325C230.33 126.508 232.033 126.1 233.923 126.1C235.837 126.1 237.552 126.508 239.068 127.325C240.585 128.142 241.763 129.273 242.603 130.72C243.467 132.167 243.898 133.812 243.898 135.655C243.898 137.498 243.467 139.155 242.603 140.625C241.763 142.072 240.585 143.203 239.068 144.02C237.552 144.837 235.837 145.245 233.923 145.245ZM233.923 141.5C235.533 141.5 236.863 140.963 237.913 139.89C238.963 138.817 239.488 137.405 239.488 135.655C239.488 133.905 238.963 132.493 237.913 131.42C236.863 130.347 235.533 129.81 233.923 129.81C232.313 129.81 230.983 130.347 229.933 131.42C228.907 132.493 228.393 133.905 228.393 135.655C228.393 137.405 228.907 138.817 229.933 139.89C230.983 140.963 232.313 141.5 233.923 141.5ZM277.692 126.1C279.512 126.1 281.134 126.497 282.557 127.29C284.004 128.083 285.135 129.203 285.952 130.65C286.769 132.097 287.177 133.765 287.177 135.655C287.177 137.545 286.769 139.225 285.952 140.695C285.135 142.142 284.004 143.262 282.557 144.055C281.134 144.848 279.512 145.245 277.692 145.245C276.409 145.245 275.23 145.023 274.157 144.58C273.107 144.137 272.22 143.472 271.497 142.585V145H267.332V119.03H271.707V128.585C272.454 127.768 273.329 127.15 274.332 126.73C275.359 126.31 276.479 126.1 277.692 126.1ZM277.202 141.5C278.812 141.5 280.13 140.963 281.157 139.89C282.207 138.817 282.732 137.405 282.732 135.655C282.732 133.905 282.207 132.493 281.157 131.42C280.13 130.347 278.812 129.81 277.202 129.81C276.152 129.81 275.207 130.055 274.367 130.545C273.527 131.012 272.862 131.688 272.372 132.575C271.882 133.462 271.637 134.488 271.637 135.655C271.637 136.822 271.882 137.848 272.372 138.735C272.862 139.622 273.527 140.31 274.367 140.8C275.207 141.267 276.152 141.5 277.202 141.5ZM317.477 126.1C320.23 126.1 322.33 126.765 323.777 128.095C325.247 129.402 325.982 131.385 325.982 134.045V145H321.852V142.725C321.315 143.542 320.545 144.172 319.542 144.615C318.562 145.035 317.372 145.245 315.972 145.245C314.572 145.245 313.347 145.012 312.297 144.545C311.247 144.055 310.43 143.39 309.847 142.55C309.287 141.687 309.007 140.718 309.007 139.645C309.007 137.965 309.625 136.623 310.862 135.62C312.122 134.593 314.093 134.08 316.777 134.08H321.607V133.8C321.607 132.493 321.21 131.49 320.417 130.79C319.647 130.09 318.492 129.74 316.952 129.74C315.902 129.74 314.863 129.903 313.837 130.23C312.833 130.557 311.982 131.012 311.282 131.595L309.567 128.41C310.547 127.663 311.725 127.092 313.102 126.695C314.478 126.298 315.937 126.1 317.477 126.1ZM316.882 142.06C317.978 142.06 318.947 141.815 319.787 141.325C320.65 140.812 321.257 140.088 321.607 139.155V136.985H317.092C314.572 136.985 313.312 137.813 313.312 139.47C313.312 140.263 313.627 140.893 314.257 141.36C314.887 141.827 315.762 142.06 316.882 142.06ZM350.847 119.03H355.222V145H350.847V119.03ZM427.932 141.185V145H409.557V120.5H427.442V124.315H414.107V130.685H425.937V134.43H414.107V141.185H427.932ZM469.968 119.03V145H465.768V142.585C465.045 143.472 464.146 144.137 463.073 144.58C462.023 145.023 460.856 145.245 459.573 145.245C457.776 145.245 456.155 144.848 454.708 144.055C453.285 143.262 452.165 142.142 451.348 140.695C450.531 139.225 450.123 137.545 450.123 135.655C450.123 133.765 450.531 132.097 451.348 130.65C452.165 129.203 453.285 128.083 454.708 127.29C456.155 126.497 457.776 126.1 459.573 126.1C460.81 126.1 461.941 126.31 462.968 126.73C463.995 127.15 464.87 127.78 465.593 128.62V119.03H469.968ZM460.098 141.5C461.148 141.5 462.093 141.267 462.933 140.8C463.773 140.31 464.438 139.622 464.928 138.735C465.418 137.848 465.663 136.822 465.663 135.655C465.663 134.488 465.418 133.462 464.928 132.575C464.438 131.688 463.773 131.012 462.933 130.545C462.093 130.055 461.148 129.81 460.098 129.81C459.048 129.81 458.103 130.055 457.263 130.545C456.423 131.012 455.758 131.688 455.268 132.575C454.778 133.462 454.533 134.488 454.533 135.655C454.533 136.822 454.778 137.848 455.268 138.735C455.758 139.622 456.423 140.31 457.263 140.8C458.103 141.267 459.048 141.5 460.098 141.5ZM513.036 126.31V145H508.871V142.62C508.171 143.46 507.296 144.113 506.246 144.58C505.196 145.023 504.065 145.245 502.851 145.245C500.355 145.245 498.383 144.557 496.936 143.18C495.513 141.78 494.801 139.715 494.801 136.985V126.31H499.176V136.39C499.176 138.07 499.55 139.33 500.296 140.17C501.066 140.987 502.151 141.395 503.551 141.395C505.115 141.395 506.351 140.917 507.261 139.96C508.195 138.98 508.661 137.58 508.661 135.76V126.31H513.036ZM546.59 145.245C544.653 145.245 542.915 144.837 541.375 144.02C539.835 143.203 538.633 142.072 537.77 140.625C536.906 139.155 536.475 137.498 536.475 135.655C536.475 133.812 536.906 132.167 537.77 130.72C538.633 129.273 539.823 128.142 541.34 127.325C542.88 126.508 544.63 126.1 546.59 126.1C548.433 126.1 550.043 126.473 551.42 127.22C552.82 127.967 553.87 129.04 554.57 130.44L551.21 132.4C550.673 131.537 549.996 130.895 549.18 130.475C548.386 130.032 547.511 129.81 546.555 129.81C544.921 129.81 543.568 130.347 542.495 131.42C541.421 132.47 540.885 133.882 540.885 135.655C540.885 137.428 541.41 138.852 542.46 139.925C543.533 140.975 544.898 141.5 546.555 141.5C547.511 141.5 548.386 141.29 549.18 140.87C549.996 140.427 550.673 139.773 551.21 138.91L554.57 140.87C553.846 142.27 552.785 143.355 551.385 144.125C550.008 144.872 548.41 145.245 546.59 145.245ZM584.741 126.1C587.495 126.1 589.595 126.765 591.041 128.095C592.511 129.402 593.246 131.385 593.246 134.045V145H589.116V142.725C588.58 143.542 587.81 144.172 586.806 144.615C585.826 145.035 584.636 145.245 583.236 145.245C581.836 145.245 580.611 145.012 579.561 144.545C578.511 144.055 577.695 143.39 577.111 142.55C576.551 141.687 576.271 140.718 576.271 139.645C576.271 137.965 576.89 136.623 578.126 135.62C579.386 134.593 581.358 134.08 584.041 134.08H588.871V133.8C588.871 132.493 588.475 131.49 587.681 130.79C586.911 130.09 585.756 129.74 584.216 129.74C583.166 129.74 582.128 129.903 581.101 130.23C580.098 130.557 579.246 131.012 578.546 131.595L576.831 128.41C577.811 127.663 578.99 127.092 580.366 126.695C581.743 126.298 583.201 126.1 584.741 126.1ZM584.146 142.06C585.243 142.06 586.211 141.815 587.051 141.325C587.915 140.812 588.521 140.088 588.871 139.155V136.985H584.356C581.836 136.985 580.576 137.813 580.576 139.47C580.576 140.263 580.891 140.893 581.521 141.36C582.151 141.827 583.026 142.06 584.146 142.06ZM629.346 143.985C628.833 144.405 628.203 144.72 627.456 144.93C626.733 145.14 625.963 145.245 625.146 145.245C623.093 145.245 621.506 144.708 620.386 143.635C619.266 142.562 618.706 140.998 618.706 138.945V129.95H615.626V126.45H618.706V122.18H623.081V126.45H628.086V129.95H623.081V138.84C623.081 139.75 623.303 140.45 623.746 140.94C624.19 141.407 624.831 141.64 625.671 141.64C626.651 141.64 627.468 141.383 628.121 140.87L629.346 143.985ZM652.195 126.31H656.57V145H652.195V126.31ZM654.4 123.23C653.607 123.23 652.942 122.985 652.405 122.495C651.869 121.982 651.6 121.352 651.6 120.605C651.6 119.858 651.869 119.24 652.405 118.75C652.942 118.237 653.607 117.98 654.4 117.98C655.194 117.98 655.859 118.225 656.395 118.715C656.932 119.182 657.2 119.777 657.2 120.5C657.2 121.27 656.932 121.923 656.395 122.46C655.882 122.973 655.217 123.23 654.4 123.23ZM689.962 145.245C688.072 145.245 686.369 144.837 684.852 144.02C683.336 143.203 682.146 142.072 681.282 140.625C680.442 139.155 680.022 137.498 680.022 135.655C680.022 133.812 680.442 132.167 681.282 130.72C682.146 129.273 683.336 128.142 684.852 127.325C686.369 126.508 688.072 126.1 689.962 126.1C691.876 126.1 693.591 126.508 695.107 127.325C696.624 128.142 697.802 129.273 698.642 130.72C699.506 132.167 699.937 133.812 699.937 135.655C699.937 137.498 699.506 139.155 698.642 140.625C697.802 142.072 696.624 143.203 695.107 144.02C693.591 144.837 691.876 145.245 689.962 145.245ZM689.962 141.5C691.572 141.5 692.902 140.963 693.952 139.89C695.002 138.817 695.527 137.405 695.527 135.655C695.527 133.905 695.002 132.493 693.952 131.42C692.902 130.347 691.572 129.81 689.962 129.81C688.352 129.81 687.022 130.347 685.972 131.42C684.946 132.493 684.432 133.905 684.432 135.655C684.432 137.405 684.946 138.817 685.972 139.89C687.022 140.963 688.352 141.5 689.962 141.5ZM733.976 126.1C736.333 126.1 738.223 126.788 739.646 128.165C741.069 129.542 741.781 131.583 741.781 134.29V145H737.406V134.85C737.406 133.217 737.021 131.992 736.251 131.175C735.481 130.335 734.384 129.915 732.961 129.915C731.351 129.915 730.079 130.405 729.146 131.385C728.213 132.342 727.746 133.73 727.746 135.55V145H723.371V126.31H727.536V128.725C728.259 127.862 729.169 127.208 730.266 126.765C731.363 126.322 732.599 126.1 733.976 126.1Z" fill="#2DA866"/>
<path d="M61.2903 74.685C33.7349 50.5713 7.20312 54.28 7.20312 54.28L7.21055 73.3276C7.20312 93.5 7.21055 117.55 7.21055 117.55V133.193C43.2736 135.233 61.2977 148.843 61.2977 148.843H69.4568C95.6473 133.193 123.536 133.875 123.536 133.875V115.502V74.685V54.0648C78.6394 58.2779 69.7979 74.685 69.7979 74.685H61.2903Z" stroke="#2DA866" stroke-width="5"/>
<path d="M41.5586 62.7802C41.5586 62.7802 54.9098 64.2637 55.57 95.5647C56.2301 126.866 49.9179 134.78 49.9179 134.743C49.179 136.354 48.1087 137.791 46.777 138.96C45.4453 140.13 43.882 141.005 42.1891 141.53L45.8978 141.114C45.8978 141.114 51.0899 140.15 56.2227 132.54C56.2227 132.54 61.2516 125.36 63.2766 109.057C65.3015 92.7536 59.3602 78.2824 59.3602 78.2824C59.3602 78.2824 54.1681 64.4565 44.5255 62.7802H41.5586Z" fill="#2DA866"/>
<path d="M88.4893 62.7802C88.4893 62.7802 75.7389 64.2637 75.101 95.5647C74.4631 126.866 80.5305 134.78 80.486 134.743C81.1749 136.333 82.1917 137.759 83.4699 138.929C84.7481 140.098 86.2589 140.985 87.9033 141.53L84.3578 141.114C84.3578 141.114 79.4179 140.15 74.4928 132.54C74.4928 132.54 69.6938 125.36 67.7579 109.057C65.8219 92.7536 71.4665 78.2824 71.4665 78.2824C71.4665 78.2824 76.4139 64.4565 85.6336 62.7802H88.4893Z" fill="#2DA866"/>
<path d="M82.6532 139.274C82.6532 139.274 103.734 134.287 94.0867 120.798C93.0148 119.572 91.4981 118.053 89.713 116.689C85.4254 113.411 76.9365 108.535 68.3614 104.243L54.9627 96.2722L35.1328 81.5566" stroke="#2DA866" stroke-width="2"/>
<path d="M44.0078 72.2603C43.622 72.3813 43.1242 72.5222 42.9137 72.589C42.2594 72.7696 40.2476 73.3645 37.6323 74.1378C37.4923 74.1796 36.8981 74.3508 36.3205 74.524C35.2192 74.8434 34.9911 74.9164 34.3523 75.1074C34.1335 75.1731 33.53 75.3516 32.9969 75.505C32.4722 75.6595 31.878 75.8307 31.6851 75.8912C31.4933 75.9434 31.2662 76.0081 31.1708 76.0301C31.0587 76.05 30.8001 75.8917 30.3108 75.4858C28.8738 74.2889 27.1742 73.0344 26.5958 72.7355C26.0008 72.4347 25.1476 72.2452 24.7244 72.3279C24.0679 72.4577 23.796 73.0226 23.9687 73.8783C24.1246 74.6644 24.4678 75.0944 25.7976 76.1348C26.4116 76.6235 27.034 77.1131 27.1794 77.2322C27.7987 77.7468 28.2371 78.0874 28.662 78.401C28.9009 78.5822 29.0953 78.7831 29.0861 78.8578C29.0637 79.1079 29.0887 82.1872 29.1241 83.4052C29.1329 83.7434 29.1365 84.6035 29.1429 85.3039C29.141 86.0032 29.1461 87.1247 29.1555 87.8001C29.165 88.4755 29.1794 89.5898 29.1775 90.2891C29.1849 90.9811 29.201 91.8765 29.211 92.2738L29.2237 92.9918L30.2231 93.7724C30.7686 94.202 31.2422 94.5301 31.2702 94.5082C31.3531 94.451 31.7423 92.7291 32.7612 87.9495C32.9907 86.9074 33.2388 85.7834 33.3223 85.4481C33.4141 85.1139 33.5931 84.2763 33.7372 83.5861C33.8719 82.9031 34.0307 82.299 34.0721 82.2367C34.1404 82.1608 34.4478 82.3336 35.4201 82.9928C37.6596 84.5162 40.3354 86.3293 40.7312 86.6056C41.1976 86.9244 41.1839 86.83 41.0885 89.2455L41.02 91.0322L41.6652 91.5416C42.0579 91.8428 42.3477 92.0218 42.4037 91.9781C42.4503 91.9417 42.5888 91.6385 42.7231 91.3011C42.8584 90.9554 43.0784 90.401 43.2137 90.0552C43.3563 89.7188 43.5805 89.1312 43.7188 88.7606C43.8572 88.3899 44.0133 88.013 44.0753 87.9195C44.1364 87.8344 44.9632 87.144 45.906 86.4005C46.8489 85.6571 47.627 85.0197 47.6331 84.9699C47.6433 84.8869 46.4591 84.033 46.3013 84.0136C46.2515 84.0074 46.0078 84.0701 45.762 84.1494C45.5163 84.2286 44.9626 84.4132 44.5322 84.5541C44.1019 84.6949 43.4694 84.9035 43.1345 85.0223C42.7996 85.1412 42.4687 85.2268 42.394 85.2176C42.3193 85.2084 41.8092 84.8337 41.2565 84.3948C40.2757 83.5996 40.1385 83.4816 39.3042 82.7972C38.8751 82.4494 37.327 81.1967 36.4439 80.4979C35.6928 79.8912 35.6897 79.9161 36.2971 79.5695C36.5956 79.404 37.7099 78.7744 38.7795 78.1646C39.8492 77.5547 41.2806 76.745 41.9606 76.3569C46.9949 73.5302 46.8581 73.6145 46.7137 73.4871C46.6368 73.4271 46.1963 73.1031 45.7226 72.775C45.2573 72.448 44.8386 72.152 44.7929 72.1126C44.7555 72.0743 44.4018 72.1403 44.0078 72.2603Z" fill="#2DA866"/>
</svg>
