<svg width="518" height="107" viewBox="0 0 518 107" fill="none" xmlns="http://www.w3.org/2000/svg">
<path d="M129.546 54.4176C131.671 55.1611 133.335 56.3295 134.539 57.9228C135.742 59.4808 136.344 61.375 136.344 63.6057C136.344 66.8631 135.034 69.3768 132.414 71.1474C129.794 72.9179 126.006 73.8029 121.048 73.8029H100.973V36.6255H119.986C124.731 36.6255 128.343 37.5107 130.821 39.2811C133.299 41.016 134.539 43.3706 134.539 46.3448C134.539 48.1151 134.096 49.7085 133.211 51.1247C132.361 52.5056 131.139 53.6032 129.546 54.4176ZM111.382 44.2203V51.3903H118.605C122.146 51.3903 123.916 50.1864 123.916 47.7787C123.916 45.4065 122.146 44.2203 118.605 44.2203H111.382ZM120.199 66.2081C123.881 66.2081 125.722 64.9512 125.722 62.4372C125.722 59.9233 123.881 58.6664 120.199 58.6664H111.382V66.2081H120.199ZM162.026 63.9243H156.29V73.8029H145.774V36.6255H162.77C166.133 36.6255 169.054 37.192 171.533 38.3251C174.011 39.4227 175.923 41.016 177.269 43.105C178.614 45.1586 179.287 47.584 179.287 50.3812C179.287 53.0721 178.65 55.4267 177.375 57.4449C176.136 59.4277 174.348 60.9855 172.011 62.1186L180.031 73.8029H168.771L162.026 63.9243ZM168.665 50.3812C168.665 48.6462 168.116 47.3008 167.019 46.3448C165.921 45.3888 164.292 44.9108 162.133 44.9108H156.29V55.7984H162.133C164.292 55.7984 165.921 55.3382 167.019 54.4176C168.116 53.4616 168.665 52.1161 168.665 50.3812ZM213.981 66.5799H198.26L195.339 73.8029H184.611L201.022 36.6255H211.378L227.843 73.8029H216.902L213.981 66.5799ZM210.9 58.8257L206.12 46.929L201.341 58.8257H210.9ZM234.807 36.6255H245.323V73.8029H234.807V36.6255ZM292.16 36.6255V73.8029H283.503L267.091 53.9927V73.8029H256.788V36.6255H265.445L281.856 56.4358V36.6255H292.16ZM316.626 74.5464C313.616 74.5464 310.695 74.1747 307.862 73.4311C305.03 72.6876 302.729 71.6964 300.958 70.4569L304.41 62.7028C306.074 63.8004 308.004 64.6856 310.199 65.3583C312.395 66.031 314.554 66.3674 316.679 66.3674C320.715 66.3674 322.733 65.3583 322.733 63.3401C322.733 62.2779 322.149 61.499 320.981 61.0033C319.847 60.4722 318.006 59.9233 315.457 59.3568C312.66 58.7549 310.323 58.1176 308.447 57.4449C306.57 56.7367 304.959 55.6214 303.613 54.0989C302.268 52.5764 301.595 50.5228 301.595 47.9381C301.595 45.6721 302.215 43.6361 303.454 41.8304C304.694 39.9892 306.535 38.5375 308.978 37.4753C311.456 36.4131 314.483 35.882 318.06 35.882C320.503 35.882 322.911 36.1653 325.283 36.7318C327.655 37.2629 329.744 38.0595 331.55 39.1217L328.31 46.929C324.769 45.017 321.334 44.061 318.006 44.061C315.917 44.061 314.395 44.3797 313.439 45.017C312.483 45.6189 312.005 46.4156 312.005 47.407C312.005 48.3984 312.571 49.1419 313.704 49.6376C314.838 50.1333 316.661 50.6467 319.175 51.1778C322.008 51.7798 324.345 52.4347 326.185 53.1429C328.062 53.8156 329.673 54.9133 331.018 56.4358C332.399 57.9229 333.09 59.9588 333.09 62.5435C333.09 64.7741 332.47 66.7923 331.231 68.5981C329.991 70.4038 328.133 71.8557 325.654 72.9531C323.176 74.0153 320.166 74.5464 316.626 74.5464ZM349.325 44.9639H337.906V36.6255H371.207V44.9639H359.841V73.8029H349.325V44.9639ZM397.337 74.5464C393.407 74.5464 389.866 73.7146 386.715 72.0502C383.599 70.3859 381.138 68.0847 379.333 65.1459C377.563 62.2071 376.677 58.8966 376.677 55.2142C376.677 51.5319 377.563 48.2214 379.333 45.2826C381.138 42.3438 383.599 40.0423 386.715 38.3782C389.866 36.714 393.407 35.882 397.337 35.882C401.267 35.882 404.79 36.714 407.906 38.3782C411.057 40.0423 413.518 42.3438 415.288 45.2826C417.094 48.2214 417.997 51.5319 417.997 55.2142C417.997 58.8966 417.094 62.2071 415.288 65.1459C413.518 68.0847 411.057 70.3859 407.906 72.0502C404.79 73.7146 401.267 74.5464 397.337 74.5464ZM397.337 65.8363C399.214 65.8363 400.913 65.3937 402.436 64.5086C403.959 63.6234 405.162 62.3841 406.047 60.7908C406.933 59.1621 407.375 57.3033 407.375 55.2142C407.375 53.1252 406.933 51.284 406.047 49.6907C405.162 48.062 403.959 46.805 402.436 45.9199C400.913 45.0347 399.214 44.5921 397.337 44.5921C395.461 44.5921 393.761 45.0347 392.238 45.9199C390.716 46.805 389.512 48.062 388.627 49.6907C387.742 51.284 387.299 53.1252 387.299 55.2142C387.299 57.3033 387.742 59.1621 388.627 60.7908C389.512 62.3841 390.716 63.6234 392.238 64.5086C393.761 65.3937 395.461 65.8363 397.337 65.8363ZM443.74 63.9243H438.004V73.8029H427.489V36.6255H444.484C447.847 36.6255 450.768 37.192 453.247 38.3251C455.725 39.4227 457.637 41.016 458.983 43.105C460.328 45.1586 461.001 47.584 461.001 50.3812C461.001 53.0721 460.364 55.4267 459.089 57.4449C457.85 59.4277 456.062 60.9855 453.725 62.1186L461.745 73.8029H450.485L443.74 63.9243ZM450.379 50.3812C450.379 48.6462 449.83 47.3008 448.733 46.3448C447.635 45.3888 446.006 44.9108 443.847 44.9108H438.004V55.7984H443.847C446.006 55.7984 447.635 55.3382 448.733 54.4176C449.83 53.4616 450.379 52.1161 450.379 50.3812ZM504.352 73.8029L504.246 54.0989L494.686 70.1383H490.012L480.505 54.63V73.8029H470.786V36.6255H479.443L492.508 58.0822L505.255 36.6255H513.912L514.018 73.8029H504.352Z" fill="white"/>
<path d="M115.202 91.3707H118.171V98.1061C117.302 98.7979 116.288 99.329 115.129 99.6994C113.97 100.07 112.779 100.255 111.556 100.255C109.834 100.255 108.281 99.8843 106.897 99.1442C105.513 98.3875 104.426 97.3495 103.638 96.03C102.85 94.7105 102.455 93.2213 102.455 91.5639C102.455 89.9064 102.85 88.4172 103.638 87.0978C104.426 85.7783 105.513 84.7478 106.897 84.0077C108.297 83.251 109.866 82.8731 111.605 82.8731C113.021 82.8731 114.308 83.1062 115.467 83.5731C116.626 84.0401 117.6 84.7236 118.388 85.6251L116.409 87.5564C115.121 86.2687 113.568 85.6251 111.749 85.6251C110.558 85.6251 109.496 85.8748 108.563 86.3735C107.645 86.8722 106.921 87.5723 106.39 88.4738C105.875 89.3753 105.618 90.4051 105.618 91.5639C105.618 92.6902 105.875 93.7042 106.39 94.6057C106.921 95.5072 107.645 96.2148 108.563 96.7301C109.496 97.2453 110.551 97.5026 111.725 97.5026C113.045 97.5026 114.204 97.2129 115.202 96.6335V91.3707ZM135.298 82.1005H138.316V100.013H135.298V82.1005ZM161.348 100.182C160.044 100.182 158.869 99.9008 157.823 99.3373C156.777 98.7738 155.957 97.9937 155.361 96.9956C154.781 95.9817 154.492 94.8388 154.492 93.5676C154.492 92.2964 154.781 91.1617 155.361 90.1637C155.957 89.1656 156.777 88.3855 157.823 87.822C158.869 87.2585 160.044 86.977 161.348 86.977C162.668 86.977 163.851 87.2585 164.896 87.822C165.943 88.3855 166.755 89.1656 167.335 90.1637C167.931 91.1617 168.228 92.2964 168.228 93.5676C168.228 94.8388 167.931 95.9817 167.335 96.9956C166.755 97.9937 165.943 98.7738 164.896 99.3373C163.851 99.9008 162.668 100.182 161.348 100.182ZM161.348 97.5992C162.458 97.5992 163.376 97.2288 164.1 96.4887C164.824 95.7486 165.186 94.7746 165.186 93.5676C165.186 92.3605 164.824 91.3866 164.1 90.6465C163.376 89.9064 162.458 89.536 161.348 89.536C160.237 89.536 159.32 89.9064 158.596 90.6465C157.888 91.3866 157.533 92.3605 157.533 93.5676C157.533 94.7746 157.888 95.7486 158.596 96.4887C159.32 97.2288 160.237 97.5992 161.348 97.5992ZM191.537 86.977C192.793 86.977 193.911 87.2509 194.893 87.7978C195.891 88.3448 196.671 89.1173 197.235 90.1154C197.798 91.1135 198.08 92.264 198.08 93.5676C198.08 94.8712 197.798 96.03 197.235 97.0439C196.671 98.042 195.891 98.8145 194.893 99.3615C193.911 99.9084 192.793 100.182 191.537 100.182C190.652 100.182 189.839 100.029 189.099 99.7236C188.375 99.418 187.763 98.9593 187.264 98.3475V100.013H184.392V82.1005H187.409V88.6911C187.924 88.1276 188.528 87.7013 189.22 87.4116C189.928 87.1219 190.701 86.977 191.537 86.977ZM191.199 97.5992C192.31 97.5992 193.219 97.2288 193.927 96.4887C194.652 95.7486 195.014 94.7746 195.014 93.5676C195.014 92.3605 194.652 91.3866 193.927 90.6465C193.219 89.9064 192.31 89.536 191.199 89.536C190.475 89.536 189.823 89.705 189.244 90.043C188.664 90.3651 188.206 90.8314 187.868 91.4432C187.53 92.055 187.361 92.7626 187.361 93.5676C187.361 94.3725 187.53 95.0802 187.868 95.692C188.206 96.3038 188.664 96.7784 189.244 97.1163C189.823 97.4384 190.475 97.5992 191.199 97.5992ZM218.979 86.977C220.878 86.977 222.326 87.4357 223.324 88.3531C224.338 89.2546 224.845 90.6224 224.845 92.4571V100.013H221.997V98.4441C221.626 99.0076 221.095 99.4422 220.403 99.7477C219.727 100.037 218.906 100.182 217.941 100.182C216.975 100.182 216.13 100.022 215.406 99.6994C214.682 99.3615 214.118 98.9028 213.716 98.3234C213.33 97.7281 213.137 97.0598 213.137 96.3197C213.137 95.1609 213.563 94.2353 214.416 93.5434C215.285 92.8351 216.645 92.4812 218.496 92.4812H221.828V92.2881C221.828 91.3866 221.554 90.6948 221.007 90.212C220.476 89.7291 219.679 89.4877 218.617 89.4877C217.893 89.4877 217.176 89.6002 216.468 89.8257C215.776 90.0512 215.189 90.3651 214.706 90.7672L213.523 88.5704C214.199 88.0551 215.011 87.6613 215.961 87.3874C216.91 87.1136 217.917 86.977 218.979 86.977ZM218.568 97.9854C219.324 97.9854 219.993 97.8164 220.572 97.4784C221.167 97.1246 221.586 96.6252 221.828 95.9817V94.4849H218.713C216.975 94.4849 216.106 95.0561 216.106 96.199C216.106 96.7459 216.323 97.1805 216.758 97.5026C217.192 97.8247 217.796 97.9854 218.568 97.9854ZM241.996 82.1005H245.013V100.013H241.996V82.1005ZM295.165 97.3819V100.013H282.491V83.1145H294.827V85.7459H285.629V90.1395H293.789V92.7226H285.629V97.3819H295.165ZM324.159 82.1005V100.013H321.262V98.3475C320.763 98.9593 320.143 99.418 319.403 99.7236C318.679 100.029 317.874 100.182 316.989 100.182C315.75 100.182 314.632 99.9084 313.634 99.3615C312.652 98.8145 311.879 98.042 311.316 97.0439C310.752 96.03 310.471 94.8712 310.471 93.5676C310.471 92.264 310.752 91.1135 311.316 90.1154C311.879 89.1173 312.652 88.3448 313.634 87.7978C314.632 87.2509 315.75 86.977 316.989 86.977C317.842 86.977 318.622 87.1219 319.331 87.4116C320.039 87.7013 320.643 88.1358 321.141 88.7152V82.1005H324.159ZM317.351 97.5992C318.075 97.5992 318.727 97.4384 319.307 97.1163C319.886 96.7784 320.345 96.3038 320.683 95.692C321.021 95.0802 321.19 94.3725 321.19 93.5676C321.19 92.7626 321.021 92.055 320.683 91.4432C320.345 90.8314 319.886 90.3651 319.307 90.043C318.727 89.705 318.075 89.536 317.351 89.536C316.627 89.536 315.975 89.705 315.396 90.043C314.816 90.3651 314.358 90.8314 314.02 91.4432C313.682 92.055 313.513 92.7626 313.513 93.5676C313.513 94.3725 313.682 95.0802 314.02 95.692C314.358 96.3038 314.816 96.7784 315.396 97.1163C315.975 97.4384 316.627 97.5992 317.351 97.5992ZM353.865 87.1219V100.013H350.992V98.3717C350.509 98.9511 349.906 99.4015 349.182 99.7236C348.457 100.029 347.677 100.182 346.84 100.182C345.118 100.182 343.758 99.7077 342.76 98.7579C341.779 97.7923 341.288 96.368 341.288 94.4849V87.1219H344.305V94.0745C344.305 95.2333 344.563 96.1024 345.078 96.6818C345.609 97.2453 346.357 97.5267 347.323 97.5267C348.402 97.5267 349.254 97.197 349.882 96.5369C350.526 95.861 350.847 94.8953 350.847 93.64V87.1219H353.865ZM377.009 100.182C375.673 100.182 374.474 99.9008 373.412 99.3373C372.35 98.7738 371.521 97.9937 370.925 96.9956C370.329 95.9817 370.032 94.8388 370.032 93.5676C370.032 92.2964 370.329 91.1617 370.925 90.1637C371.521 89.1656 372.341 88.3855 373.388 87.822C374.45 87.2585 375.657 86.977 377.009 86.977C378.28 86.977 379.391 87.2343 380.34 87.7496C381.306 88.2648 382.03 89.0049 382.513 89.9706L380.196 91.3225C379.825 90.7272 379.358 90.2844 378.795 89.9947C378.248 89.6891 377.644 89.536 376.985 89.536C375.858 89.536 374.924 89.9064 374.184 90.6465C373.444 91.3707 373.074 92.3447 373.074 93.5676C373.074 94.7905 373.436 95.7727 374.16 96.5128C374.9 97.237 375.842 97.5992 376.985 97.5992C377.644 97.5992 378.248 97.4543 378.795 97.1646C379.358 96.8591 379.825 96.408 380.196 95.8127L382.513 97.1646C382.014 98.1303 381.282 98.8786 380.316 99.4097C379.366 99.925 378.264 100.182 377.009 100.182ZM403.323 86.977C405.223 86.977 406.671 87.4357 407.669 88.3531C408.683 89.2546 409.19 90.6224 409.19 92.4571V100.013H406.341V98.4441C405.971 99.0076 405.44 99.4422 404.748 99.7477C404.072 100.037 403.251 100.182 402.285 100.182C401.32 100.182 400.475 100.022 399.751 99.6994C399.026 99.3615 398.463 98.9028 398.061 98.3234C397.674 97.7281 397.481 97.0598 397.481 96.3197C397.481 95.1609 397.908 94.2353 398.761 93.5434C399.63 92.8351 400.99 92.4812 402.841 92.4812H406.172V92.2881C406.172 91.3866 405.899 90.6948 405.351 90.212C404.82 89.7291 404.024 89.4877 402.961 89.4877C402.237 89.4877 401.521 89.6002 400.813 89.8257C400.121 90.0512 399.533 90.3651 399.05 90.7672L397.868 88.5704C398.543 88.0551 399.357 87.6613 400.306 87.3874C401.256 87.1136 402.261 86.977 403.323 86.977ZM402.913 97.9854C403.67 97.9854 404.337 97.8164 404.917 97.4784C405.513 97.1246 405.931 96.6252 406.172 95.9817V94.4849H403.058C401.32 94.4849 400.451 95.0561 400.451 96.199C400.451 96.7459 400.668 97.1805 401.102 97.5026C401.537 97.8247 402.14 97.9854 402.913 97.9854ZM434.09 99.3132C433.736 99.6029 433.301 99.8201 432.786 99.965C432.287 100.11 431.756 100.182 431.193 100.182C429.777 100.182 428.682 99.8119 427.909 99.0718C427.137 98.3317 426.751 97.2529 426.751 95.8369V89.6326H424.626V87.2185H426.751V84.2732H429.768V87.2185H433.22V89.6326H429.768V95.7644C429.768 96.3921 429.921 96.8749 430.227 97.2129C430.533 97.535 430.975 97.6957 431.555 97.6957C432.231 97.6957 432.794 97.5185 433.245 97.1646L434.09 99.3132ZM449.85 87.1219H452.867V100.013H449.85V87.1219ZM451.371 84.9975C450.824 84.9975 450.365 84.8285 449.994 84.4905C449.625 84.1367 449.439 83.7021 449.439 83.1869C449.439 82.6716 449.625 82.2454 449.994 81.9074C450.365 81.5536 450.824 81.3763 451.371 81.3763C451.918 81.3763 452.377 81.5453 452.747 81.8833C453.117 82.2054 453.302 82.6158 453.302 83.1145C453.302 83.6456 453.117 84.096 452.747 84.4664C452.393 84.8202 451.934 84.9975 451.371 84.9975ZM475.899 100.182C474.596 100.182 473.421 99.9008 472.375 99.3373C471.329 98.7738 470.508 97.9937 469.912 96.9956C469.333 95.9817 469.043 94.8388 469.043 93.5676C469.043 92.2964 469.333 91.1617 469.912 90.1637C470.508 89.1656 471.329 88.3855 472.375 87.822C473.421 87.2585 474.596 86.977 475.899 86.977C477.219 86.977 478.402 87.2585 479.448 87.822C480.494 88.3855 481.307 89.1656 481.886 90.1637C482.482 91.1617 482.78 92.2964 482.78 93.5676C482.78 94.8388 482.482 95.9817 481.886 96.9956C481.307 97.9937 480.494 98.7738 479.448 99.3373C478.402 99.9008 477.219 100.182 475.899 100.182ZM475.899 97.5992C477.01 97.5992 477.927 97.2288 478.651 96.4887C479.376 95.7486 479.738 94.7746 479.738 93.5676C479.738 92.3605 479.376 91.3866 478.651 90.6465C477.927 89.9064 477.01 89.536 475.899 89.536C474.789 89.536 473.871 89.9064 473.147 90.6465C472.439 91.3866 472.085 92.3605 472.085 93.5676C472.085 94.7746 472.439 95.7486 473.147 96.4887C473.871 97.2288 474.789 97.5992 475.899 97.5992ZM506.258 86.977C507.884 86.977 509.187 87.4516 510.169 88.4014C511.15 89.3512 511.641 90.7589 511.641 92.6261V100.013H508.624V93.0123C508.624 91.886 508.358 91.041 507.827 90.4775C507.296 89.8981 506.539 89.6084 505.558 89.6084C504.447 89.6084 503.57 89.9464 502.926 90.6224C502.283 91.2824 501.961 92.2398 501.961 93.4952V100.013H498.943V87.1219H501.816V88.7876C502.315 88.1924 502.942 87.7413 503.699 87.4357C504.455 87.1302 505.308 86.977 506.258 86.977Z" fill="white"/>
<path d="M42.2752 51.5137C23.269 34.8814 4.96875 37.4394 4.96875 37.4394L4.97387 50.5775C4.96875 64.4913 4.97387 81.0798 4.97387 81.0798V91.8695C29.8483 93.2766 42.2803 102.664 42.2803 102.664H47.908C65.9729 91.8695 85.209 92.3399 85.209 92.3399V79.6672V51.5137V37.291C54.2417 40.197 48.1433 51.5137 48.1433 51.5137H42.2752Z" stroke="white" stroke-width="5"/>
<path d="M28.666 43.3024C28.666 43.3024 37.875 44.3257 38.3303 65.9154C38.7856 87.5054 34.4318 92.964 34.4318 92.9385C33.9222 94.0497 33.1839 95.0409 32.2654 95.8472C31.3469 96.6542 30.2686 97.2577 29.1009 97.6198L31.659 97.3329C31.659 97.3329 35.2402 96.668 38.7805 91.419C38.7805 91.419 42.2492 86.4666 43.6459 75.2217C45.0426 63.9765 40.9446 53.995 40.9446 53.995C40.9446 53.995 37.3634 44.4587 30.7124 43.3024H28.666Z" fill="white"/>
<path d="M61.0354 43.3024C61.0354 43.3024 52.2408 44.3257 51.8008 65.9154C51.3608 87.5054 55.5458 92.964 55.5151 92.9385C55.9903 94.0352 56.6916 95.0188 57.5732 95.8258C58.4549 96.6321 59.497 97.2439 60.6312 97.6198L58.1857 97.3329C58.1857 97.3329 54.7784 96.668 51.3813 91.419C51.3813 91.419 48.0712 86.4666 46.7359 75.2217C45.4006 63.9765 49.2939 53.995 49.2939 53.995C49.2939 53.995 52.7064 44.4587 59.0657 43.3024H61.0354Z" fill="white"/>
<path d="M57.0095 96.0638C57.0095 96.0638 71.5499 92.624 64.8957 83.32C64.1563 82.4744 63.1102 81.4267 61.8789 80.4859C58.9216 78.2249 53.0664 74.8617 47.1517 71.9013L37.91 66.4034L24.2324 56.2534" stroke="white" stroke-width="2"/>
<path d="M30.355 49.8413C30.0889 49.9247 29.7455 50.0219 29.6003 50.068C29.149 50.1926 27.7614 50.6029 25.9575 51.1363C25.8609 51.1651 25.4511 51.2832 25.0527 51.4027C24.2931 51.623 24.1357 51.6733 23.6951 51.8051C23.5442 51.8504 23.1279 51.9735 22.7602 52.0793C22.3983 52.1859 21.9885 52.304 21.8554 52.3457C21.7231 52.3817 21.5665 52.4263 21.5007 52.4415C21.4234 52.4552 21.245 52.346 20.9075 52.0661C19.9163 51.2405 18.744 50.3752 18.3451 50.169C17.9347 49.9616 17.3462 49.8309 17.0543 49.8879C16.6015 49.9774 16.4139 50.3671 16.5331 50.9573C16.6406 51.4995 16.8773 51.7961 17.7945 52.5137C18.218 52.8508 18.6473 53.1885 18.7476 53.2706C19.1748 53.6256 19.4772 53.8605 19.7702 54.0768C19.935 54.2018 20.0691 54.3404 20.0628 54.3919C20.0473 54.5644 20.0646 56.6883 20.089 57.5284C20.0951 57.7617 20.0975 58.355 20.1019 58.8381C20.1006 59.3204 20.1042 60.094 20.1106 60.5598C20.1172 61.0257 20.1271 61.7943 20.1258 62.2766C20.1309 62.7539 20.142 63.3715 20.1489 63.6455L20.1577 64.1408L20.847 64.6792C21.2233 64.9755 21.5499 65.2018 21.5692 65.1867C21.6264 65.1473 21.8949 63.9596 22.5977 60.6629C22.756 59.9441 22.9271 59.1688 22.9847 58.9375C23.048 58.707 23.1715 58.1293 23.2709 57.6532C23.3638 57.1821 23.4733 56.7654 23.5018 56.7225C23.549 56.6701 23.761 56.7893 24.4316 57.244C25.9763 58.2948 27.8219 59.5453 28.0949 59.7359C28.4166 59.9558 28.4072 59.8907 28.3414 61.5568L28.2941 62.7891L28.7392 63.1405C29.01 63.3483 29.2099 63.4717 29.2485 63.4416C29.2807 63.4165 29.3762 63.2073 29.4689 62.9746C29.5622 62.7362 29.7139 62.3538 29.8072 62.1153C29.9056 61.8832 30.0602 61.4779 30.1556 61.2223C30.2511 60.9666 30.3588 60.7067 30.4015 60.6422C30.4437 60.5835 31.014 60.1073 31.6642 59.5944C32.3146 59.0817 32.8513 58.642 32.8555 58.6077C32.8625 58.5504 32.0457 57.9615 31.9369 57.9481C31.9026 57.9438 31.7345 57.9871 31.5649 58.0418C31.3955 58.0964 31.0135 58.2237 30.7167 58.3209C30.4199 58.418 29.9836 58.5619 29.7526 58.6438C29.5216 58.7258 29.2934 58.7849 29.2419 58.7785C29.1903 58.7722 28.8385 58.5137 28.4573 58.211C27.7808 57.6625 27.6861 57.5811 27.1107 57.1091C26.8147 56.8692 25.7469 56.0051 25.1378 55.5231C24.6197 55.1047 24.6176 55.1219 25.0365 54.8828C25.2424 54.7686 26.011 54.3344 26.7488 53.9138C27.4866 53.4931 28.4739 52.9346 28.9429 52.6669C32.4153 50.7172 32.321 50.7753 32.2214 50.6875C32.1683 50.6461 31.8645 50.4226 31.5377 50.1963C31.2168 49.9707 30.928 49.7666 30.8965 49.7394C30.8707 49.713 30.6267 49.7585 30.355 49.8413Z" fill="white"/>
</svg>
